<svg xmlns="http://www.w3.org/2000/svg" viewBox="0 0 120 120" width="120" height="120" fill="none">
  <rect width="120" height="120" rx="22" fill="#0A0B0D"/>
  <g stroke="#F2F3F5" stroke-linecap="butt">
    <line x1="12" y1="70" x2="22" y2="70" stroke-width="3"/>
    <line x1="16.95" y1="54.15" x2="25.46" y2="58.94" stroke-width="1.5"/>
    <line x1="27.82" y1="41.41" x2="34.82" y2="48.41" stroke-width="1.5"/>
    <line x1="42.79" y1="33.01" x2="47.57" y2="41.52" stroke-width="1.5"/>
    <line x1="60" y1="22" x2="60" y2="32" stroke-width="3"/>
    <line x1="77.21" y1="33.01" x2="72.43" y2="41.52" stroke-width="1.5"/>
    <line x1="92.18" y1="41.41" x2="85.18" y2="48.41" stroke-width="1.5"/>
    <line x1="103.05" y1="54.15" x2="94.54" y2="58.94" stroke-width="1.5"/>
    <line x1="108" y1="70" x2="98" y2="70" stroke-width="3"/>
  </g>
  <g transform="rotate(-32 60 70)">
    <path d="M60 66.5 L102 66.5 L110 70 L102 73.5 L60 73.5 Z" fill="#00B4FF"/>
    <rect x="72" y="69" width="20" height="2" fill="#0A0B0D"/>
  </g>
  <circle cx="60" cy="70" r="4.5" fill="#0A0B0D" stroke="#00B4FF" stroke-width="2.5"/>
</svg>
